<svg xmlns="http://www.w3.org/2000/svg" xmlns:xlink="http://www.w3.org/1999/xlink" width="225" height="124" viewBox="0 0 225 124"><defs><path id="bvxea" d="M1364.31 1183.315c2.24 9.718 4.106 21.542.102 31.178-3.763 9.358-15.89 3.19-20.556-.382-5.775-4.534-7.388-12.737-8.135-19.702-2.083-14.926 1.27-33.872 9.014-49.486 10.07 10.21 16.013 24.608 19.576 38.392zm-109.77 13.393c-8.318-44.637 34.642-80.645 76.54-61.226 2.142.89 4.319 2.297 6.22 3.464-14.502 26.741-17.18 62.791.783 81.806 16.265 17.054 37.156 3.638 37.538-16.918.369-24.454-8.404-49.569-26.22-66.514 10.57-16.071 26.71-26.815 47.557-22.296 35.1 7.68 52.044 53.013 41.247 84.434-1.335 3.212 3.501 5.472 4.836 2.26 18.77-40.034-11.623-95.601-57.187-96.832-17.695-.323-33.04 10.626-43.888 26.457-20.499-14.419-48.188-12.742-69.152-.362-24.199 14.426-30.63 41.383-25.2 66.99.805 4.103 7.457 2.598 6.926-1.263z"/><path id="bvxec" d="M1251.31 1221.102c6.734-7.748 13.156-16.253 17.713-25.407 1.815-3.765-3.537-5.99-5.63-2.465-4.185 7.05-9.994 13.173-15.562 19.02-3.356-3.403-6.99-7.047-10.105-10.728-2.286-2.958-4.753-8.503-8.963-9.248-2.105-.373-3.308 1.01-3.957 2.875-1.503 4.523 4.308 9.574 6.87 12.773 4.26 5.16 8.723 9.525 13.704 13.855 1.66 1.443 4.486.985 5.93-.675z"/><linearGradient id="bvxeb" x1="1328.86" x2="1370.19" y1="1109.94" y2="1231.03" gradientUnits="userSpaceOnUse"><stop offset="0" stop-color="#aa202b"/><stop offset="1" stop-color="#551016"/></linearGradient><linearGradient id="bvxed" x1="1242.04" x2="1250.6" y1="1184.68" y2="1210.38" gradientUnits="userSpaceOnUse"><stop offset="0" stop-color="#aa202b"/><stop offset="1" stop-color="#551016"/></linearGradient></defs><g><g transform="translate(-1224 -1105)"><use fill="url(#bvxeb)" xlink:href="#bvxea"/></g><g transform="translate(-1224 -1105)"><use fill="url(#bvxed)" xlink:href="#bvxec"/></g></g></svg>