<svg xmlns="http://www.w3.org/2000/svg" xmlns:xlink="http://www.w3.org/1999/xlink" width="345" height="345" viewBox="0 0 345 345"><defs><path id="as7fa" d="M358.13 3614.394c-65.328 0-118.477 53.148-118.477 118.476 0 65.329 53.149 118.477 118.477 118.477s118.476-53.148 118.476-118.477c0-65.328-53.148-118.476-118.476-118.476zm0 290.613c-11.68 0-23.351-1.177-34.692-3.497a171.266 171.266 0 0 1-32.311-10.03 172.15 172.15 0 0 1-29.24-15.871 173.373 173.373 0 0 1-25.476-21.02 173.37 173.37 0 0 1-21.02-25.475 172.15 172.15 0 0 1-15.87-29.24 171.274 171.274 0 0 1-10.03-32.312 173.413 173.413 0 0 1-3.498-34.692c0-11.679 1.177-23.35 3.498-34.691a171.273 171.273 0 0 1 10.03-32.312 172.152 172.152 0 0 1 15.87-29.24 173.368 173.368 0 0 1 21.02-25.475 173.369 173.369 0 0 1 25.476-21.02 172.152 172.152 0 0 1 29.24-15.87 171.273 171.273 0 0 1 32.311-10.03 173.412 173.412 0 0 1 34.692-3.498c11.68 0 23.351 1.177 34.691 3.498a171.271 171.271 0 0 1 32.312 10.03 172.15 172.15 0 0 1 29.24 15.87 173.37 173.37 0 0 1 25.475 21.02 173.373 173.373 0 0 1 21.02 25.475 172.146 172.146 0 0 1 15.87 29.24 171.27 171.27 0 0 1 10.03 32.312 173.41 173.41 0 0 1 3.498 34.691c0 11.68-1.177 23.352-3.497 34.692a171.27 171.27 0 0 1-10.03 32.312 172.146 172.146 0 0 1-15.871 29.24 173.369 173.369 0 0 1-21.02 25.475 173.373 173.373 0 0 1-25.475 21.02 172.145 172.145 0 0 1-29.24 15.87 171.267 171.267 0 0 1-32.312 10.03 173.41 173.41 0 0 1-34.69 3.498z"/><linearGradient id="as7fb" x1="358.13" x2="358.13" y1="3560.73" y2="3905.01" gradientUnits="userSpaceOnUse"><stop offset="0" stop-color="#aa202b"/><stop offset="1" stop-color="#551016"/></linearGradient></defs><g><g transform="translate(-186 -3560)"><use fill="url(#as7fb)" xlink:href="#as7fa"/></g></g></svg>